<svg xmlns="http://www.w3.org/2000/svg" width="19" height="19" viewBox="0 0 19 19">
    <g fill="#c1c8d8">
        <path stroke="rgba(0,0,0,0)" stroke-miterlimit="10" d="M9 18A9 9 0 0 1 2.634 2.634a9 9 0 0 1 12.733 12.733A8.943 8.943 0 0 1 9 18zM9 1.8A7.2 7.2 0 1 0 16.2 9 7.208 7.208 0 0 0 9 1.8z" transform="translate(-356.5 3373.5) translate(357 -3373)"/>
        <path d="M3.333 7.85L0 4.517l1.175-1.175 2.158 2.15L8.825 0 10 1.183 3.333 7.85z" transform="translate(-356.5 3373.5) translate(361 -3368)"/>
    </g>
</svg>
