<svg width="21" height="18" viewBox="0 0 21 18" fill="none" xmlns="http://www.w3.org/2000/svg">
<path d="M9.3316 0.363607C11.6032 0.366127 13.7811 1.26965 15.3874 2.87596C16.9937 4.48226 17.8973 6.66015 17.8998 8.9318H20.7559L17.0525 12.6352L16.9859 12.7685L13.1397 8.9318L15.9957 8.9318C15.9957 7.61376 15.6049 6.32531 14.8726 5.2294C14.1404 4.13348 13.0996 3.27932 11.8819 2.77493C10.6641 2.27054 9.3242 2.13856 8.03148 2.3957C6.73876 2.65284 5.55133 3.28754 4.61933 4.21954C3.68733 5.15154 3.05263 6.33897 2.79549 7.63169C2.53835 8.92441 2.67032 10.2644 3.17472 11.4821C3.67911 12.6998 4.53328 13.7406 5.62919 14.4728C6.7251 15.2051 8.01355 15.596 9.3316 15.596C10.2065 15.5981 11.0731 15.4258 11.8806 15.0891C12.6881 14.7523 13.4204 14.2579 14.0346 13.6348L15.3865 14.9867C14.3903 15.984 13.1636 16.7202 11.8148 17.13C10.4661 17.5397 9.03713 17.6104 7.65456 17.3358C6.27198 17.0611 4.97852 16.4496 3.88884 15.5554C2.79916 14.6613 1.94691 13.5121 1.40765 12.2097C0.868393 10.9073 0.658778 9.49203 0.797386 8.08927C0.935994 6.68651 1.41854 5.33961 2.20226 4.16797C2.98598 2.99634 4.04666 2.03615 5.29027 1.37253C6.53388 0.708917 7.922 0.362368 9.3316 0.363607V0.363607ZM8.37957 5.56165H9.80761V9.60774L13.1397 11.5879L12.4542 12.7399L8.37957 10.3218L8.37957 5.56165Z" fill="#C1C8D8"/>
</svg>
