<svg xmlns="http://www.w3.org/2000/svg" width="19" height="19" viewBox="0 0 19 19">
    <g>
        <path fill="#c1c8d8" d="M12.323 15.943H1.54A1.531 1.531 0 0 1 0 14.425V6.074h1.54v8.351h12.323a1.531 1.531 0 0 1-1.54 1.518zm3.08-3.037H4.621a1.531 1.531 0 0 1-1.541-1.517V3.037h3.851V1.518A1.531 1.531 0 0 1 8.472 0h3.081a1.531 1.531 0 0 1 1.54 1.518v1.519h3.85v8.352a1.531 1.531 0 0 1-1.543 1.518zM8.472 1.518v1.519h3.081V1.518z" transform="translate(.528 .528)"/>
        <path fill="none" d="M0 0h19v19H0z"/>
    </g>
</svg>
