<svg xmlns="http://www.w3.org/2000/svg" width="24" height="24" viewBox="0 0 24 24">
    <g>
        <path fill="none" d="M0 0h24v24H0z"/>
        <path fill="#c1c8d8" d="M19 20.5a5 5 0 1 1 5-5 4.947 4.947 0 0 1-5 5zm0-8.5a3.5 3.5 0 1 0 3.5 3.5A3.547 3.547 0 0 0 19 12zM5 20.5a5 5 0 1 1 0-10 5 5 0 0 1 0 10zM5 12a3.5 3.5 0 0 0 0 7 3.5 3.5 0 0 0 0-7zm8 5.5h-2v-5L7.8 9.7a1.665 1.665 0 0 1-.6-1.4 1.975 1.975 0 0 1 .6-1.4l2.8-2.8a1.683 1.683 0 0 1 1.4-.6 2.46 2.46 0 0 1 1.6.6L15.5 6a5 5 0 0 0 3.6 1.5v2A6.969 6.969 0 0 1 14 7.4l-.8-.8L10.8 9l2.2 2.3v6.2zM15.5 4a2 2 0 1 1 2-2 2 2 0 0 1-2 2z" transform="translate(0 1.5)"/>
    </g>
</svg>
